<svg version="1.1" viewBox="0.0 0.0 226.77165354330708 226.77165354330708" fill="none" stroke="none" stroke-linecap="square" stroke-miterlimit="10" xmlns:xlink="http://www.w3.org/1999/xlink" xmlns="http://www.w3.org/2000/svg"><clipPath id="p.0"><path d="m0 0l226.77165 0l0 226.77165l-226.77165 0l0 -226.77165z" clip-rule="nonzero"/></clipPath><g clip-path="url(#p.0)"><path fill="#000000" fill-opacity="0.0" d="m0 0l226.77165 0l0 226.77165l-226.77165 0z" fill-rule="evenodd"/><path fill="#ffffff" d="m43.359417 45.529892l138.99213 0l0 94.04724l-138.99213 0z" fill-rule="evenodd"/><path stroke="#000000" stroke-width="1.0" stroke-linejoin="round" stroke-linecap="butt" d="m43.359417 45.529892l138.99213 0l0 94.04724l-138.99213 0z" fill-rule="evenodd"/><path fill="#000000" fill-opacity="0.0" d="m44.27893 115.929726l38.173225 -29.41732" fill-rule="evenodd"/><path stroke="#000000" stroke-width="1.0" stroke-linejoin="round" stroke-linecap="butt" d="m44.27893 115.929726l38.173225 -29.41732" fill-rule="evenodd"/><path fill="#000000" fill-opacity="0.0" d="m83.391464 86.997696l17.480316 17.826767" fill-rule="evenodd"/><path stroke="#000000" stroke-width="1.0" stroke-linejoin="round" stroke-linecap="butt" d="m83.391464 86.997696l17.480316 17.826767" fill-rule="evenodd"/><path fill="#000000" fill-opacity="0.0" d="m101.79649 104.83855l39.118103 -26.015747" fill-rule="evenodd"/><path stroke="#000000" stroke-width="1.0" stroke-linejoin="round" stroke-linecap="butt" d="m101.79649 104.83855l39.118103 -26.015747" fill-rule="evenodd"/><path fill="#000000" fill-opacity="0.0" d="m140.90755 78.80033l41.417313 13.70079" fill-rule="evenodd"/><path stroke="#000000" stroke-width="1.0" stroke-linejoin="round" stroke-linecap="butt" d="m140.90755 78.80033l41.417313 13.70079" fill-rule="evenodd"/><path fill="#ffffff" d="m96.27498 66.97904l0 0c0 -4.9227257 3.9131012 -8.9133835 8.740158 -8.9133835l0 0c2.318039 0 4.54113 0.9390869 6.180229 2.6106682c1.6390915 1.6715851 2.559929 3.9387398 2.559929 6.3027153l0 0c0 4.9227295 -3.9131012 8.913391 -8.740158 8.913391l0 0c-4.827057 0 -8.740158 -3.9906616 -8.740158 -8.913391z" fill-rule="evenodd"/><path stroke="#000000" stroke-width="1.0" stroke-linejoin="round" stroke-linecap="butt" d="m96.27498 66.97904l0 0c0 -4.9227257 3.9131012 -8.9133835 8.740158 -8.9133835l0 0c2.318039 0 4.54113 0.9390869 6.180229 2.6106682c1.6390915 1.6715851 2.559929 3.9387398 2.559929 6.3027153l0 0c0 4.9227295 -3.9131012 8.913391 -8.740158 8.913391l0 0c-4.827057 0 -8.740158 -3.9906616 -8.740158 -8.913391z" fill-rule="evenodd"/><path fill="#000000" fill-opacity="0.0" d="m33.740482 143.59995l163.77953 0l0 34.267715l-163.77953 0z" fill-rule="evenodd"/><path fill="#000000" d="m49.740482 165.6762q0 0.21875 -0.078125 0.390625q-0.0625 0.15625 -0.1875 0.265625q-0.125 0.109375 -0.296875 0.15625q-0.15625 0.046875 -0.328125 0.046875l-1.03125 0q-0.3125 0 -0.546875 -0.0625q-0.234375 -0.0625 -0.4375 -0.234375q-0.1875 -0.171875 -0.375 -0.453125q-0.171875 -0.28125 -0.40625 -0.734375l-2.9375 -5.515625q-0.25 -0.5 -0.515625 -1.0625q-0.265625 -0.578125 -0.46875 -1.109375l-0.015625 0q0.03125 0.65625 0.046875 1.3125q0.015625 0.640625 0.015625 1.34375l0 6.15625q0 0.09375 -0.046875 0.171875q-0.046875 0.078125 -0.171875 0.125q-0.125 0.046875 -0.34375 0.0625q-0.203125 0.03125 -0.53125 0.03125q-0.3125 0 -0.53125 -0.03125q-0.203125 -0.015625 -0.328125 -0.0625q-0.109375 -0.046875 -0.15625 -0.125q-0.046875 -0.078125 -0.046875 -0.171875l0 -10.59375q0 -0.421875 0.25 -0.625q0.25 -0.21875 0.625 -0.21875l1.28125 0q0.34375 0 0.578125 0.0625q0.234375 0.046875 0.421875 0.1875q0.1875 0.140625 0.34375 0.390625q0.171875 0.234375 0.34375 0.578125l2.296875 4.3125q0.203125 0.390625 0.390625 0.78125q0.203125 0.375 0.375 0.75q0.1875 0.375 0.359375 0.75q0.1875 0.359375 0.34375 0.71875l0.015625 0q-0.03125 -0.640625 -0.046875 -1.328125q-0.015625 -0.703125 -0.015625 -1.328125l0 -5.53125q0 -0.09375 0.046875 -0.15625q0.0625 -0.078125 0.1875 -0.125q0.125 -0.0625 0.328125 -0.078125q0.21875 -0.03125 0.546875 -0.03125q0.3125 0 0.515625 0.03125q0.21875 0.015625 0.328125 0.078125q0.109375 0.046875 0.15625 0.125q0.046875 0.0625 0.046875 0.15625l0 10.59375zm10.648087 -3.609375q0 1.03125 -0.28125 1.890625q-0.265625 0.859375 -0.828125 1.484375q-0.546875 0.609375 -1.390625 0.953125q-0.828125 0.328125 -1.953125 0.328125q-1.078125 0 -1.890625 -0.296875q-0.796875 -0.296875 -1.328125 -0.875q-0.515625 -0.578125 -0.78125 -1.40625q-0.25 -0.84375 -0.25 -1.921875q0 -1.03125 0.28125 -1.890625q0.28125 -0.859375 0.828125 -1.46875q0.5625 -0.625 1.390625 -0.953125q0.828125 -0.34375 1.953125 -0.34375q1.09375 0 1.890625 0.296875q0.8125 0.296875 1.328125 0.875q0.53125 0.5625 0.78125 1.40625q0.25 0.84375 0.25 1.921875zm-2.359375 0.09375q0 -0.609375 -0.09375 -1.109375q-0.09375 -0.5 -0.328125 -0.875q-0.21875 -0.375 -0.59375 -0.578125q-0.375 -0.21875 -0.953125 -0.21875q-0.515625 0 -0.90625 0.1875q-0.375 0.1875 -0.625 0.546875q-0.234375 0.359375 -0.359375 0.875q-0.125 0.5 -0.125 1.140625q0 0.59375 0.09375 1.109375q0.109375 0.5 0.328125 0.875q0.21875 0.375 0.59375 0.578125q0.390625 0.203125 0.953125 0.203125q0.53125 0 0.90625 -0.1875q0.390625 -0.1875 0.625 -0.53125q0.25 -0.359375 0.359375 -0.859375q0.125 -0.515625 0.125 -1.15625zm10.68475 4.046875q0 0.09375 -0.0625 0.171875q-0.046875 0.0625 -0.1875 0.109375q-0.125 0.046875 -0.34375 0.0625q-0.21875 0.015625 -0.546875 0.015625q-0.34375 0 -0.5625 -0.015625q-0.21875 -0.015625 -0.359375 -0.0625q-0.125 -0.046875 -0.1875 -0.109375q-0.046875 -0.078125 -0.046875 -0.171875l0 -8.109375q0 -0.09375 0.046875 -0.15625q0.0625 -0.0625 0.1875 -0.109375q0.140625 -0.0625 0.359375 -0.078125q0.21875 -0.03125 0.5625 -0.03125q0.328125 0 0.546875 0.03125q0.21875 0.015625 0.34375 0.078125q0.140625 0.046875 0.1875 0.109375q0.0625 0.0625 0.0625 0.15625l0 8.109375zm0.171875 -10.875q0 0.6875 -0.28125 0.953125q-0.28125 0.265625 -1.046875 0.265625q-0.765625 0 -1.046875 -0.25q-0.265625 -0.25 -0.265625 -0.921875q0 -0.6875 0.28125 -0.953125q0.28125 -0.28125 1.0625 -0.28125q0.75 0 1.015625 0.265625q0.28125 0.265625 0.28125 0.921875zm15.050827 10.875q0 0.09375 -0.0625 0.171875q-0.046875 0.0625 -0.1875 0.109375q-0.125 0.046875 -0.34375 0.0625q-0.21875 0.015625 -0.546875 0.015625q-0.34375 0 -0.5625 -0.015625q-0.21875 -0.015625 -0.359375 -0.0625q-0.125 -0.046875 -0.1875 -0.109375q-0.046875 -0.078125 -0.046875 -0.171875l0 -4.8125q0 -0.40625 -0.078125 -0.75q-0.0625 -0.34375 -0.234375 -0.578125q-0.15625 -0.25 -0.40625 -0.375q-0.234375 -0.125 -0.5625 -0.125q-0.421875 0 -0.84375 0.3125q-0.40625 0.3125 -0.90625 0.921875l0 5.40625q0 0.09375 -0.0625 0.171875q-0.046875 0.0625 -0.1875 0.109375q-0.125 0.046875 -0.34375 0.0625q-0.21875 0.015625 -0.546875 0.015625q-0.328125 0 -0.546875 -0.015625q-0.21875 -0.015625 -0.359375 -0.0625q-0.125 -0.046875 -0.1875 -0.109375q-0.046875 -0.078125 -0.046875 -0.171875l0 -4.8125q0 -0.40625 -0.078125 -0.75q-0.078125 -0.34375 -0.234375 -0.578125q-0.15625 -0.25 -0.40625 -0.375q-0.234375 -0.125 -0.5625 -0.125q-0.421875 0 -0.84375 0.3125q-0.421875 0.3125 -0.90625 0.921875l0 5.40625q0 0.09375 -0.0625 0.171875q-0.046875 0.0625 -0.1875 0.109375q-0.125 0.046875 -0.34375 0.0625q-0.21875 0.015625 -0.546875 0.015625q-0.34375 0 -0.5625 -0.015625q-0.21875 -0.015625 -0.359375 -0.0625q-0.125 -0.046875 -0.1875 -0.109375q-0.046875 -0.078125 -0.046875 -0.171875l0 -8.125q0 -0.09375 0.046875 -0.15625q0.046875 -0.0625 0.15625 -0.109375q0.125 -0.046875 0.3125 -0.0625q0.1875 -0.03125 0.46875 -0.03125q0.296875 0 0.484375 0.03125q0.203125 0.015625 0.296875 0.0625q0.109375 0.046875 0.15625 0.109375q0.046875 0.0625 0.046875 0.15625l0 0.9375q0.671875 -0.71875 1.34375 -1.078125q0.671875 -0.375 1.390625 -0.375q0.5 0 0.90625 0.109375q0.40625 0.09375 0.71875 0.296875q0.3125 0.1875 0.53125 0.46875q0.234375 0.265625 0.390625 0.609375q0.359375 -0.390625 0.703125 -0.671875q0.359375 -0.28125 0.703125 -0.453125q0.34375 -0.1875 0.6875 -0.265625q0.34375 -0.09375 0.6875 -0.09375q0.8125 0 1.359375 0.28125q0.5625 0.265625 0.90625 0.734375q0.34375 0.46875 0.484375 1.09375q0.15625 0.625 0.15625 1.328125l0 5.203125zm9.176422 0.03125q0 0.125 -0.09375 0.203125q-0.09375 0.0625 -0.296875 0.09375q-0.1875 0.03125 -0.578125 0.03125q-0.40625 0 -0.59375 -0.03125q-0.1875 -0.03125 -0.265625 -0.09375q-0.078125 -0.078125 -0.078125 -0.203125l0 -0.640625q-0.5 0.53125 -1.140625 0.828125q-0.640625 0.296875 -1.421875 0.296875q-0.65625 0 -1.203125 -0.171875q-0.53125 -0.15625 -0.9375 -0.484375q-0.390625 -0.34375 -0.609375 -0.828125q-0.21875 -0.5 -0.21875 -1.15625q0 -0.703125 0.28125 -1.21875q0.28125 -0.53125 0.828125 -0.875q0.5625 -0.34375 1.375 -0.5q0.8125 -0.171875 1.90625 -0.171875l0.796875 0l0 -0.484375q0 -0.390625 -0.078125 -0.671875q-0.078125 -0.296875 -0.265625 -0.484375q-0.171875 -0.1875 -0.46875 -0.28125q-0.296875 -0.09375 -0.734375 -0.09375q-0.578125 0 -1.03125 0.140625q-0.4375 0.125 -0.796875 0.28125q-0.34375 0.140625 -0.578125 0.28125q-0.21875 0.125 -0.375 0.125q-0.09375 0 -0.171875 -0.0625q-0.078125 -0.0625 -0.140625 -0.1875q-0.046875 -0.125 -0.078125 -0.296875q-0.015625 -0.171875 -0.015625 -0.375q0 -0.28125 0.046875 -0.4375q0.046875 -0.171875 0.171875 -0.296875q0.125 -0.140625 0.4375 -0.296875q0.328125 -0.171875 0.75 -0.296875q0.4375 -0.140625 0.9375 -0.21875q0.5 -0.09375 1.046875 -0.09375q0.953125 0 1.625 0.1875q0.6875 0.1875 1.125 0.578125q0.4375 0.375 0.640625 0.984375q0.203125 0.609375 0.203125 1.453125l0 5.46875zm-2.25 -3.484375l-0.875 0q-0.5625 0 -0.953125 0.09375q-0.390625 0.078125 -0.640625 0.25q-0.25 0.15625 -0.359375 0.390625q-0.109375 0.21875 -0.109375 0.53125q0 0.5 0.3125 0.796875q0.328125 0.296875 0.90625 0.296875q0.484375 0 0.890625 -0.25q0.40625 -0.25 0.828125 -0.71875l0 -1.390625zm11.850327 -4.109375q0 0.4375 -0.109375 0.65625q-0.09375 0.203125 -0.234375 0.203125l-0.953125 0q0.203125 0.21875 0.28125 0.5q0.09375 0.28125 0.09375 0.578125q0 0.703125 -0.25 1.265625q-0.234375 0.546875 -0.671875 0.921875q-0.4375 0.375 -1.0625 0.578125q-0.625 0.1875 -1.390625 0.1875q-0.390625 0 -0.75 -0.09375q-0.359375 -0.09375 -0.546875 -0.21875q-0.109375 0.125 -0.203125 0.296875q-0.078125 0.15625 -0.078125 0.34375q0 0.265625 0.234375 0.4375q0.234375 0.171875 0.65625 0.1875l1.96875 0.078125q0.703125 0.015625 1.234375 0.1875q0.546875 0.171875 0.90625 0.484375q0.375 0.296875 0.5625 0.734375q0.203125 0.421875 0.203125 0.96875q0 0.59375 -0.265625 1.125q-0.265625 0.546875 -0.796875 0.9375q-0.515625 0.390625 -1.3125 0.609375q-0.796875 0.234375 -1.859375 0.234375q-1.046875 0 -1.78125 -0.171875q-0.734375 -0.15625 -1.203125 -0.453125q-0.46875 -0.296875 -0.6875 -0.703125q-0.203125 -0.390625 -0.203125 -0.875q0 -0.3125 0.078125 -0.59375q0.078125 -0.265625 0.21875 -0.515625q0.15625 -0.25 0.375 -0.46875q0.21875 -0.234375 0.5 -0.4375q-0.390625 -0.21875 -0.609375 -0.578125q-0.21875 -0.359375 -0.21875 -0.78125q0 -0.53125 0.25 -0.96875q0.25 -0.453125 0.640625 -0.8125q-0.3125 -0.3125 -0.515625 -0.75q-0.1875 -0.453125 -0.1875 -1.125q0 -0.703125 0.25 -1.265625q0.25 -0.5625 0.6875 -0.953125q0.453125 -0.390625 1.078125 -0.59375q0.625 -0.203125 1.359375 -0.203125q0.390625 0 0.734375 0.046875q0.359375 0.046875 0.65625 0.125l2.578125 0q0.15625 0 0.25 0.203125q0.09375 0.203125 0.09375 0.671875zm-2.9375 1.921875q0 -0.65625 -0.375 -1.015625q-0.359375 -0.359375 -1.015625 -0.359375q-0.34375 0 -0.609375 0.109375q-0.25 0.109375 -0.421875 0.3125q-0.15625 0.1875 -0.25 0.453125q-0.078125 0.265625 -0.078125 0.546875q0 0.609375 0.359375 0.96875q0.375 0.359375 1.015625 0.359375q0.359375 0 0.609375 -0.109375q0.25 -0.109375 0.421875 -0.296875q0.171875 -0.1875 0.25 -0.4375q0.09375 -0.25 0.09375 -0.53125zm0.53125 6.484375q0 -0.40625 -0.328125 -0.625q-0.328125 -0.21875 -0.890625 -0.234375l-1.640625 -0.046875q-0.234375 0.171875 -0.375 0.34375q-0.140625 0.15625 -0.234375 0.296875q-0.078125 0.140625 -0.109375 0.28125q-0.03125 0.140625 -0.03125 0.28125q0 0.453125 0.453125 0.6875q0.46875 0.25 1.3125 0.25q0.515625 0 0.875 -0.109375q0.359375 -0.109375 0.578125 -0.28125q0.21875 -0.171875 0.296875 -0.390625q0.09375 -0.203125 0.09375 -0.453125zm11.238541 -5.140625q0 0.421875 -0.1875 0.625q-0.1875 0.1875 -0.515625 0.1875l-4.953125 0q0 0.53125 0.125 0.953125q0.125 0.421875 0.390625 0.71875q0.28125 0.296875 0.703125 0.453125q0.421875 0.15625 1.015625 0.15625q0.59375 0 1.046875 -0.078125q0.453125 -0.09375 0.78125 -0.203125q0.34375 -0.109375 0.5625 -0.1875q0.21875 -0.09375 0.359375 -0.09375q0.078125 0 0.125 0.03125q0.0625 0.03125 0.09375 0.125q0.046875 0.078125 0.046875 0.234375q0.015625 0.140625 0.015625 0.359375q0 0.203125 -0.015625 0.34375q0 0.140625 -0.015625 0.25q-0.015625 0.09375 -0.0625 0.171875q-0.03125 0.0625 -0.09375 0.125q-0.046875 0.0625 -0.3125 0.171875q-0.265625 0.109375 -0.6875 0.21875q-0.40625 0.09375 -0.9375 0.171875q-0.515625 0.078125 -1.125 0.078125q-1.078125 0 -1.890625 -0.265625q-0.8125 -0.28125 -1.359375 -0.828125q-0.546875 -0.5625 -0.828125 -1.40625q-0.265625 -0.84375 -0.265625 -1.984375q0 -1.078125 0.28125 -1.953125q0.28125 -0.875 0.8125 -1.46875q0.546875 -0.609375 1.3125 -0.921875q0.78125 -0.328125 1.734375 -0.328125q1.03125 0 1.75 0.296875q0.71875 0.296875 1.1875 0.84375q0.46875 0.53125 0.6875 1.265625q0.21875 0.71875 0.21875 1.578125l0 0.359375zm-2.21875 -0.65625q0.015625 -0.96875 -0.40625 -1.515625q-0.40625 -0.546875 -1.265625 -0.546875q-0.4375 0 -0.765625 0.171875q-0.3125 0.15625 -0.53125 0.4375q-0.21875 0.265625 -0.328125 0.65625q-0.109375 0.375 -0.140625 0.796875l3.4375 0zm15.250214 4.984375q0 0.125 -0.09375 0.203125q-0.09375 0.0625 -0.296875 0.09375q-0.1875 0.03125 -0.578125 0.03125q-0.40625 0 -0.59375 -0.03125q-0.1875 -0.03125 -0.265625 -0.09375q-0.078125 -0.078125 -0.078125 -0.203125l0 -0.640625q-0.5 0.53125 -1.140625 0.828125q-0.640625 0.296875 -1.421875 0.296875q-0.65625 0 -1.203125 -0.171875q-0.53125 -0.15625 -0.9375 -0.484375q-0.390625 -0.34375 -0.609375 -0.828125q-0.21875 -0.5 -0.21875 -1.15625q0 -0.703125 0.28125 -1.21875q0.28125 -0.53125 0.828125 -0.875q0.5625 -0.34375 1.375 -0.5q0.8125 -0.171875 1.90625 -0.171875l0.796875 0l0 -0.484375q0 -0.390625 -0.078125 -0.671875q-0.078125 -0.296875 -0.265625 -0.484375q-0.171875 -0.1875 -0.46875 -0.28125q-0.296875 -0.09375 -0.734375 -0.09375q-0.578125 0 -1.03125 0.140625q-0.4375 0.125 -0.796875 0.28125q-0.34375 0.140625 -0.578125 0.28125q-0.21875 0.125 -0.375 0.125q-0.09375 0 -0.171875 -0.0625q-0.078125 -0.0625 -0.140625 -0.1875q-0.046875 -0.125 -0.078125 -0.296875q-0.015625 -0.171875 -0.015625 -0.375q0 -0.28125 0.046875 -0.4375q0.046875 -0.171875 0.171875 -0.296875q0.125 -0.140625 0.4375 -0.296875q0.328125 -0.171875 0.75 -0.296875q0.4375 -0.140625 0.9375 -0.21875q0.5 -0.09375 1.046875 -0.09375q0.953125 0 1.625 0.1875q0.6875 0.1875 1.125 0.578125q0.4375 0.375 0.640625 0.984375q0.203125 0.609375 0.203125 1.453125l0 5.46875zm-2.25 -3.484375l-0.875 0q-0.5625 0 -0.953125 0.09375q-0.390625 0.078125 -0.640625 0.25q-0.25 0.15625 -0.359375 0.390625q-0.109375 0.21875 -0.109375 0.53125q0 0.5 0.3125 0.796875q0.328125 0.296875 0.90625 0.296875q0.484375 0 0.890625 -0.25q0.40625 -0.25 0.828125 -0.71875l0 -1.390625zm11.742249 -4.671875q0 0.03125 0 0.109375q0 0.0625 -0.015625 0.140625q-0.015625 0.078125 -0.046875 0.171875q-0.015625 0.09375 -0.046875 0.234375l-2.453125 7.34375q-0.046875 0.15625 -0.125 0.25q-0.078125 0.09375 -0.25 0.15625q-0.171875 0.046875 -0.484375 0.0625q-0.296875 0.015625 -0.796875 0.015625q-0.484375 0 -0.796875 -0.015625q-0.296875 -0.015625 -0.46875 -0.0625q-0.171875 -0.0625 -0.25 -0.15625q-0.078125 -0.109375 -0.125 -0.25l-2.4375 -7.34375q-0.0625 -0.1875 -0.09375 -0.328125q-0.03125 -0.15625 -0.03125 -0.21875q0 -0.0625 0 -0.109375q0 -0.09375 0.046875 -0.15625q0.046875 -0.078125 0.171875 -0.125q0.140625 -0.046875 0.359375 -0.0625q0.21875 -0.015625 0.5625 -0.015625q0.375 0 0.59375 0.03125q0.234375 0.015625 0.359375 0.0625q0.140625 0.03125 0.1875 0.109375q0.0625 0.078125 0.09375 0.1875l1.84375 5.96875l0.0625 0.21875l0.046875 -0.21875l1.828125 -5.96875q0.03125 -0.109375 0.078125 -0.1875q0.0625 -0.078125 0.1875 -0.109375q0.140625 -0.046875 0.34375 -0.0625q0.21875 -0.03125 0.5625 -0.03125q0.34375 0 0.546875 0.015625q0.21875 0.015625 0.328125 0.0625q0.125 0.046875 0.171875 0.125q0.046875 0.0625 0.046875 0.15625zm8.00679 8.15625q0 0.125 -0.09375 0.203125q-0.09375 0.0625 -0.296875 0.09375q-0.1875 0.03125 -0.578125 0.03125q-0.40625 0 -0.59375 -0.03125q-0.1875 -0.03125 -0.265625 -0.09375q-0.078125 -0.078125 -0.078125 -0.203125l0 -0.640625q-0.5 0.53125 -1.140625 0.828125q-0.640625 0.296875 -1.421875 0.296875q-0.65625 0 -1.203125 -0.171875q-0.53125 -0.15625 -0.9375 -0.484375q-0.390625 -0.34375 -0.609375 -0.828125q-0.21875 -0.5 -0.21875 -1.15625q0 -0.703125 0.28125 -1.21875q0.28125 -0.53125 0.828125 -0.875q0.5625 -0.34375 1.375 -0.5q0.8125 -0.171875 1.90625 -0.171875l0.796875 0l0 -0.484375q0 -0.390625 -0.078125 -0.671875q-0.078125 -0.296875 -0.265625 -0.484375q-0.171875 -0.1875 -0.46875 -0.28125q-0.296875 -0.09375 -0.734375 -0.09375q-0.578125 0 -1.03125 0.140625q-0.4375 0.125 -0.796875 0.28125q-0.34375 0.140625 -0.578125 0.28125q-0.21875 0.125 -0.375 0.125q-0.09375 0 -0.171875 -0.0625q-0.078125 -0.0625 -0.140625 -0.1875q-0.046875 -0.125 -0.078125 -0.296875q-0.015625 -0.171875 -0.015625 -0.375q0 -0.28125 0.046875 -0.4375q0.046875 -0.171875 0.171875 -0.296875q0.125 -0.140625 0.4375 -0.296875q0.328125 -0.171875 0.75 -0.296875q0.4375 -0.140625 0.9375 -0.21875q0.5 -0.09375 1.046875 -0.09375q0.953125 0 1.625 0.1875q0.6875 0.1875 1.125 0.578125q0.4375 0.375 0.640625 0.984375q0.203125 0.609375 0.203125 1.453125l0 5.46875zm-2.25 -3.484375l-0.875 0q-0.5625 0 -0.953125 0.09375q-0.390625 0.078125 -0.640625 0.25q-0.25 0.15625 -0.359375 0.390625q-0.109375 0.21875 -0.109375 0.53125q0 0.5 0.3125 0.796875q0.328125 0.296875 0.90625 0.296875q0.484375 0 0.890625 -0.25q0.40625 -0.25 0.828125 -0.71875l0 -1.390625zm6.8190765 3.453125q0 0.09375 -0.0625 0.171875q-0.046875 0.0625 -0.1875 0.109375q-0.125 0.046875 -0.34375 0.0625q-0.21875 0.015625 -0.546875 0.015625q-0.34375 0 -0.5625 -0.015625q-0.21875 -0.015625 -0.359375 -0.0625q-0.125 -0.046875 -0.1875 -0.109375q-0.046875 -0.078125 -0.046875 -0.171875l0 -8.109375q0 -0.09375 0.046875 -0.15625q0.0625 -0.0625 0.1875 -0.109375q0.140625 -0.0625 0.359375 -0.078125q0.21875 -0.03125 0.5625 -0.03125q0.328125 0 0.546875 0.03125q0.21875 0.015625 0.34375 0.078125q0.140625 0.046875 0.1875 0.109375q0.0625 0.0625 0.0625 0.15625l0 8.109375zm0.171875 -10.875q0 0.6875 -0.28125 0.953125q-0.28125 0.265625 -1.046875 0.265625q-0.765625 0 -1.046875 -0.25q-0.265625 -0.25 -0.265625 -0.921875q0 -0.6875 0.28125 -0.953125q0.28125 -0.28125 1.0625 -0.28125q0.75 0 1.015625 0.265625q0.28125 0.265625 0.28125 0.921875zm4.410202 10.875q0 0.09375 -0.0625 0.171875q-0.046875 0.0625 -0.1875 0.109375q-0.125 0.046875 -0.34375 0.0625q-0.21875 0.015625 -0.546875 0.015625q-0.34375 0 -0.5625 -0.015625q-0.21875 -0.015625 -0.359375 -0.0625q-0.125 -0.046875 -0.1875 -0.109375q-0.046875 -0.078125 -0.046875 -0.171875l0 -11.96875q0 -0.09375 0.046875 -0.171875q0.0625 -0.078125 0.1875 -0.125q0.140625 -0.046875 0.359375 -0.078125q0.21875 -0.03125 0.5625 -0.03125q0.328125 0 0.546875 0.03125q0.21875 0.03125 0.34375 0.078125q0.140625 0.046875 0.1875 0.125q0.0625 0.078125 0.0625 0.171875l0 11.96875zm9.222702 0.03125q0 0.125 -0.09375 0.203125q-0.09375 0.0625 -0.296875 0.09375q-0.1875 0.03125 -0.578125 0.03125q-0.40625 0 -0.59375 -0.03125q-0.1875 -0.03125 -0.265625 -0.09375q-0.078125 -0.078125 -0.078125 -0.203125l0 -0.640625q-0.5 0.53125 -1.140625 0.828125q-0.640625 0.296875 -1.421875 0.296875q-0.65625 0 -1.203125 -0.171875q-0.53125 -0.15625 -0.9375 -0.484375q-0.390625 -0.34375 -0.609375 -0.828125q-0.21875 -0.5 -0.21875 -1.15625q0 -0.703125 0.28125 -1.21875q0.28125 -0.53125 0.828125 -0.875q0.5625 -0.34375 1.375 -0.5q0.8125 -0.171875 1.90625 -0.171875l0.796875 0l0 -0.484375q0 -0.390625 -0.078125 -0.671875q-0.078125 -0.296875 -0.265625 -0.484375q-0.171875 -0.1875 -0.46875 -0.28125q-0.296875 -0.09375 -0.734375 -0.09375q-0.578125 0 -1.03125 0.140625q-0.4375 0.125 -0.796875 0.28125q-0.34375 0.140625 -0.578125 0.28125q-0.21875 0.125 -0.375 0.125q-0.09375 0 -0.171875 -0.0625q-0.078125 -0.0625 -0.140625 -0.1875q-0.046875 -0.125 -0.078125 -0.296875q-0.015625 -0.171875 -0.015625 -0.375q0 -0.28125 0.046875 -0.4375q0.046875 -0.171875 0.171875 -0.296875q0.125 -0.140625 0.4375 -0.296875q0.328125 -0.171875 0.75 -0.296875q0.4375 -0.140625 0.9375 -0.21875q0.5 -0.09375 1.046875 -0.09375q0.953125 0 1.625 0.1875q0.6875 0.1875 1.125 0.578125q0.4375 0.375 0.640625 0.984375q0.203125 0.609375 0.203125 1.453125l0 5.46875zm-2.25 -3.484375l-0.875 0q-0.5625 0 -0.953125 0.09375q-0.390625 0.078125 -0.640625 0.25q-0.25 0.15625 -0.359375 0.390625q-0.109375 0.21875 -0.109375 0.53125q0 0.5 0.3125 0.796875q0.328125 0.296875 0.90625 0.296875q0.484375 0 0.890625 -0.25q0.40625 -0.25 0.828125 -0.71875l0 -1.390625zm12.709702 -0.71875q0 1.09375 -0.234375 1.953125q-0.234375 0.859375 -0.6875 1.46875q-0.4375 0.609375 -1.09375 0.9375q-0.65625 0.328125 -1.484375 0.328125q-0.40625 0 -0.765625 -0.078125q-0.359375 -0.078125 -0.6875 -0.25q-0.3125 -0.171875 -0.625 -0.421875q-0.3125 -0.265625 -0.640625 -0.640625l0 0.875q0 0.109375 -0.0625 0.171875q-0.046875 0.0625 -0.15625 0.109375q-0.109375 0.046875 -0.3125 0.0625q-0.1875 0.015625 -0.453125 0.015625q-0.28125 0 -0.46875 -0.015625q-0.1875 -0.015625 -0.3125 -0.0625q-0.109375 -0.046875 -0.15625 -0.109375q-0.046875 -0.0625 -0.046875 -0.171875l0 -11.96875q0 -0.09375 0.046875 -0.171875q0.0625 -0.078125 0.1875 -0.125q0.140625 -0.046875 0.359375 -0.078125q0.21875 -0.03125 0.5625 -0.03125q0.328125 0 0.546875 0.03125q0.21875 0.03125 0.34375 0.078125q0.140625 0.046875 0.1875 0.125q0.0625 0.078125 0.0625 0.171875l0 4.484375q0.3125 -0.3125 0.625 -0.53125q0.3125 -0.21875 0.609375 -0.359375q0.3125 -0.140625 0.640625 -0.203125q0.328125 -0.0625 0.703125 -0.0625q0.90625 0 1.53125 0.359375q0.625 0.359375 1.015625 0.96875q0.40625 0.609375 0.578125 1.421875q0.1875 0.8125 0.1875 1.71875zm-2.375 0.171875q0 -0.53125 -0.078125 -1.0q-0.078125 -0.484375 -0.28125 -0.859375q-0.1875 -0.375 -0.5 -0.59375q-0.296875 -0.234375 -0.75 -0.234375q-0.234375 0 -0.453125 0.0625q-0.21875 0.0625 -0.453125 0.21875q-0.234375 0.15625 -0.484375 0.40625q-0.234375 0.25 -0.515625 0.609375l0 2.703125q0.484375 0.609375 0.921875 0.9375q0.453125 0.328125 0.9375 0.328125q0.4375 0 0.75 -0.234375q0.3125 -0.234375 0.515625 -0.59375q0.203125 -0.359375 0.296875 -0.828125q0.09375 -0.46875 0.09375 -0.921875zm6.4957123 4.0q0 0.09375 -0.0625 0.171875q-0.046875 0.0625 -0.1875 0.109375q-0.125 0.046875 -0.34375 0.0625q-0.21875 0.015625 -0.546875 0.015625q-0.34375 0 -0.5625 -0.015625q-0.21875 -0.015625 -0.359375 -0.0625q-0.125 -0.046875 -0.1875 -0.109375q-0.046875 -0.078125 -0.046875 -0.171875l0 -11.96875q0 -0.09375 0.046875 -0.171875q0.0625 -0.078125 0.1875 -0.125q0.140625 -0.046875 0.359375 -0.078125q0.21875 -0.03125 0.5625 -0.03125q0.328125 0 0.546875 0.03125q0.21875 0.03125 0.34375 0.078125q0.140625 0.046875 0.1875 0.125q0.0625 0.078125 0.0625 0.171875l0 11.96875zm9.800827 -4.296875q0 0.421875 -0.1875 0.625q-0.1875 0.1875 -0.515625 0.1875l-4.953125 0q0 0.53125 0.125 0.953125q0.125 0.421875 0.390625 0.71875q0.28125 0.296875 0.703125 0.453125q0.421875 0.15625 1.015625 0.15625q0.59375 0 1.046875 -0.078125q0.453125 -0.09375 0.78125 -0.203125q0.34375 -0.109375 0.5625 -0.1875q0.21875 -0.09375 0.359375 -0.09375q0.078125 0 0.125 0.03125q0.0625 0.03125 0.09375 0.125q0.046875 0.078125 0.046875 0.234375q0.015625 0.140625 0.015625 0.359375q0 0.203125 -0.015625 0.34375q0 0.140625 -0.015625 0.25q-0.015625 0.09375 -0.0625 0.171875q-0.03125 0.0625 -0.09375 0.125q-0.046875 0.0625 -0.3125 0.171875q-0.265625 0.109375 -0.6875 0.21875q-0.40625 0.09375 -0.9375 0.171875q-0.515625 0.078125 -1.125 0.078125q-1.078125 0 -1.890625 -0.265625q-0.8125 -0.28125 -1.359375 -0.828125q-0.546875 -0.5625 -0.828125 -1.40625q-0.265625 -0.84375 -0.265625 -1.984375q0 -1.078125 0.28125 -1.953125q0.28125 -0.875 0.8125 -1.46875q0.546875 -0.609375 1.3125 -0.921875q0.78125 -0.328125 1.734375 -0.328125q1.03125 0 1.75 0.296875q0.71875 0.296875 1.1875 0.84375q0.46875 0.53125 0.6875 1.265625q0.21875 0.71875 0.21875 1.578125l0 0.359375zm-2.21875 -0.65625q0.015625 -0.96875 -0.40625 -1.515625q-0.40625 -0.546875 -1.265625 -0.546875q-0.4375 0 -0.765625 0.171875q-0.3125 0.15625 -0.53125 0.4375q-0.21875 0.265625 -0.328125 0.65625q-0.109375 0.375 -0.140625 0.796875l3.4375 0z" fill-rule="nonzero"/><path fill="#000000" d="m41.378582 39.506454l146.4567 100.409454l-2.2677307 3.685028l-146.45668 -100.40944z" fill-rule="evenodd"/><path stroke="#ffffff" stroke-width="4.0" stroke-linejoin="round" stroke-linecap="butt" d="m41.378582 39.506454l146.4567 100.409454l-2.2677307 3.685028l-146.45668 -100.40944z" fill-rule="evenodd"/></g></svg>